<svg xmlns="http://www.w3.org/2000/svg" width="973" height="992" viewBox="0 0 873 892" version="1.1"><path d="M 126.105 47.540 C 109.995 51.051, 97.569 56.650, 85.201 65.970 C 66.993 79.690, 55.490 96.959, 48.708 120.758 L 46.501 128.500 46.232 305.972 C 45.940 498.300, 45.745 490.470, 51.208 506.445 C 60.628 533.990, 83.683 557.805, 109.917 567.088 C 125.226 572.506, 130.240 573.134, 162.750 573.710 L 193 574.247 193 632.058 C 193 666.379, 193.388 690.891, 193.955 692.383 C 194.481 693.765, 196.561 696.723, 198.579 698.956 C 203.574 704.485, 210.840 706.700, 218.304 704.968 C 223.385 703.790, 224.652 702.614, 275.750 651.653 L 328 599.544 328.017 620.522 C 328.045 653.797, 329.859 664.793, 338.035 681.252 C 350.235 705.810, 374.493 723.466, 402.214 727.965 C 406.094 728.594, 437.973 728.988, 485.504 728.992 L 562.507 729 616.004 782.602 C 672.262 838.971, 674.555 840.967, 683.101 840.990 C 691.146 841.012, 698.554 836.142, 702.100 828.500 C 703.825 824.782, 703.958 821.136, 703.978 776.847 L 704 729.194 730.250 728.764 C 755.201 728.354, 756.935 728.200, 765.297 725.657 C 800.001 715.102, 824.015 686.807, 828.048 651.719 C 828.761 645.520, 829.005 596.474, 828.795 502 L 828.482 361.500 826.218 353.500 C 817.502 322.697, 796.089 300.835, 765.288 291.290 L 756.500 288.566 704.289 288.226 L 652.079 287.886 651.766 208.193 C 651.460 129.966, 651.414 128.359, 649.287 120.825 C 644.034 102.217, 635.624 87.496, 623.067 74.924 C 610.697 62.539, 597.841 54.975, 579.500 49.290 L 570.500 46.500 351.500 46.323 C 167.470 46.174, 131.479 46.368, 126.105 47.540 M 132.209 88.518 C 110.264 93.307, 93.164 110.573, 88.483 132.665 C 86.288 143.024, 86.315 476.102, 88.511 486.471 C 92.584 505.699, 105.493 520.945, 124.492 528.964 L 130.500 531.500 174.500 532 C 217.142 532.485, 218.623 532.566, 222.500 534.653 C 227.521 537.355, 230.472 540.492, 232.452 545.232 C 233.768 548.381, 234 555.414, 234 592.214 L 234 635.492 283.750 585.843 C 311.113 558.535, 335.075 535.362, 337 534.346 C 340.327 532.591, 346.124 532.475, 454 532 L 567.500 531.500 573.146 529.217 C 590.237 522.306, 602.841 508.781, 608.292 491.500 L 610.500 484.500 610.500 309 L 610.500 133.500 608.167 127 C 601.730 109.064, 588.344 95.604, 571.123 89.751 L 564.500 87.500 351.500 87.323 C 174.150 87.175, 137.447 87.375, 132.209 88.518 M 340.256 155.750 C 335.218 158.494, 177.128 285.005, 175.109 287.908 C 172.714 291.351, 170.998 296.581, 171.010 300.399 C 171.027 305.759, 175.383 313.564, 180.101 316.686 C 183.838 319.159, 185.286 319.500, 192.045 319.500 L 199.736 319.500 209.118 312.337 L 218.500 305.174 219 371.837 L 219.500 438.500 222 443.495 C 223.827 447.146, 225.824 449.298, 229.422 451.495 L 234.343 454.500 349 454.500 L 463.657 454.500 468.578 451.495 C 472.176 449.298, 474.173 447.146, 476 443.495 L 478.500 438.500 479 371.658 L 479.500 304.817 487.500 311.006 C 497.832 319.001, 499.875 320, 505.885 320 C 512.202 320, 515.633 318.697, 519.872 314.689 C 528.122 306.888, 529.096 296.397, 522.409 287.378 C 519.893 283.985, 362.928 158.589, 357.695 155.792 C 353.418 153.505, 344.416 153.484, 340.256 155.750 M 304.825 235.757 L 261.150 270.500 261.075 342.250 L 261 414 349 414 L 437 414 437 342.571 L 437 271.141 393.261 236.071 C 369.204 216.782, 349.292 201.003, 349.011 201.007 C 348.730 201.011, 328.846 216.649, 304.825 235.757 M 652 405.869 C 652 470.085, 651.750 484.170, 650.483 491.436 C 643.497 531.499, 613.900 562.129, 573 571.623 C 566.206 573.200, 556.294 573.399, 467.750 573.732 L 370 574.100 370 611.945 C 370 646.818, 370.155 650.288, 371.975 656.145 C 377.059 672.505, 390.956 684.132, 408.717 686.888 C 413.530 687.635, 442.147 688, 495.876 688 C 549.108 688, 576.812 688.350, 578.685 689.046 C 580.233 689.622, 599.837 708.407, 622.250 730.792 L 663 771.491 663 737.403 C 663 703.648, 663.023 703.271, 665.327 698.907 C 666.606 696.483, 669.569 693.150, 671.910 691.500 L 676.167 688.500 713.834 687.963 C 749.170 687.460, 751.824 687.296, 756.745 685.311 C 774.735 678.056, 784.824 665.275, 787.054 646.918 C 787.718 641.450, 787.974 590.832, 787.784 502.500 L 787.492 366.500 785.241 360.580 C 779.118 344.472, 768.405 334.685, 752.307 330.492 C 747.621 329.271, 737.982 329, 699.290 329 L 652 329 652 405.869" stroke="none" fill="#fafafa" fill-rule="evenodd"/></svg>